<?xml version="1.0" encoding="utf-8"?>
<!-- Generator: Adobe Illustrator 27.0.0, SVG Export Plug-In . SVG Version: 6.00 Build 0)  -->
<svg version="1.1" id="Layer_1" xmlns="http://www.w3.org/2000/svg" xmlns:xlink="http://www.w3.org/1999/xlink" x="0px" y="0px"
	 viewBox="0 0 100 100" style="enable-background:new 0 0 100 100;" xml:space="preserve">
<style type="text/css">
	.st0{fill:#FFFFFF;}
</style>
<g>
	<path class="st0" d="M28.05,67.21c-3.11,0-6.04-0.58-8.8-1.73c-2.76-1.16-5.19-2.74-7.27-4.74c-2.08-2.01-3.73-4.37-4.94-7.1
		c-1.21-2.72-1.82-5.66-1.82-8.8s0.6-6.1,1.79-8.86c1.19-2.76,2.81-5.17,4.86-7.21c2.04-2.04,4.45-3.66,7.21-4.85
		c2.76-1.19,5.71-1.79,8.86-1.79c3.14,0,6.09,0.6,8.86,1.79s5.17,2.81,7.21,4.85c2.04,2.04,3.66,4.45,4.85,7.21
		c1.19,2.76,1.79,5.72,1.79,8.86s-0.6,6.08-1.79,8.8c-1.19,2.73-2.81,5.09-4.85,7.1c-2.04,2.01-4.44,3.59-7.18,4.74
		C34.08,66.63,31.16,67.21,28.05,67.21z M6.7,66.7l42.53,5.85v5.34L6.7,72.09V66.7z M27.94,32.4c-1.71,0-3.3,0.33-4.8,0.99
		c-1.5,0.66-2.81,1.55-3.95,2.67c-1.14,1.12-2.03,2.43-2.67,3.95c-0.64,1.52-0.97,3.12-0.97,4.83s0.32,3.3,0.97,4.8
		c0.64,1.49,1.53,2.81,2.67,3.95c1.13,1.13,2.45,2.03,3.95,2.67c1.49,0.64,3.09,0.97,4.8,0.97c1.7,0,3.31-0.32,4.82-0.97
		c1.52-0.64,2.83-1.53,3.95-2.67c1.12-1.14,2.01-2.45,2.67-3.95c0.66-1.49,0.99-3.1,0.99-4.8s-0.33-3.31-0.99-4.83
		c-0.66-1.51-1.55-2.83-2.67-3.95c-1.12-1.12-2.43-2.01-3.95-2.67C31.25,32.73,29.64,32.4,27.94,32.4z"/>
	<path class="st0" d="M94.78,23.54v42.48H84.16V53.24H65.99v12.78H55.37V23.54h10.62v19.08h18.17V23.54H94.78z"/>
</g>
</svg>
